<?xml version="1.0" encoding="UTF-8"?>
<svg version="1.1" viewBox="0 0 80 80" xmlns="http://www.w3.org/2000/svg">
<title>1 – Fundamentals/Logos/Clubs/Bielefeld DSC</title>
<g fill="none" fill-rule="evenodd">
<rect width="80" height="80"/>
<g transform="translate(11 11)">
<circle cx="29" cy="29" r="29" fill="#fff" fill-rule="nonzero"/>
<path id="Shape" d="m10.573 29.092c0-10.221 8.3133-18.536 18.536-18.536 10.222 0 18.536 8.3133 18.536 18.536 0 10.222-8.3153 18.532-18.536 18.532-10.22 0-18.536-8.3133-18.536-18.532zm-0.63091 0c0 10.569 8.5982 19.166 19.166 19.166 10.568 0 19.166-8.5975 19.166-19.166 0-10.568-8.5982-19.168-19.166-19.168-10.568 0-19.166 8.5995-19.166 19.168z" fill="#1D1D1B" fill-rule="nonzero"/>
<path id="Shape" d="m46.383 11.931c0.12486-0.12251 0.23713-0.25723 0.33511-0.40213 0.11664-0.17207 0.19333-0.3422 0.19333-0.47302 0-0.55036-0.51556-0.9106-1.0253-0.9106-0.20616 0.0075356-0.40813 0.06034-0.5916 0.15467-0.59482-1.6556-2.3948-4.292-4.3951-5.3631-1.7245-0.91962-3.8576-1.122-5.5422-1.4919-0.97633-0.21782-2.4824-1.1858-2.6712-1.1813h-0.32544v0.26553c0.14629 0.61158 1.1942 0.93509 1.4867 1.381 0.21847 0.35058 0.38667 0.81329 0.71856 1.1162 0.55873 0.51169 1.2973 0.91962 1.7432 1.3366 1.9333 1.7909 4.1766 1.8689 5.9057 2.9-2.7331-0.56711-2.9039-1.0137-5.0441-1.0137-0.63607 0-1.1432 0.019333-1.8599-0.050267 0.064444-0.036733 0.15273-0.064444 0.14242-0.11278 0.69493 0.019958 1.3889-0.065211 2.0584-0.25262-0.70889-0.26487-1.4262-0.32222-2.07-0.59482-0.42791-0.18044-0.75593-0.57227-1.0782-0.56324-0.8816 0.027067-2.1737-0.68182-2.92-1.2573l0.79524-0.049622c1.0311 0.19849 2.1776 0.62511 3.1462 0.73596-0.74047-0.65153-1.6756-1.1374-1.76-2.0203-0.33898 0.1508-0.70116 0.45111-0.89127 0.45111s-0.2668-0.13276-1.1774-0.076044c-0.31256 0.019333-0.67087 0.22813-0.98407 0.22813-2.4263 0.064444-2.5017 0.0754-2.6918 0.0754s-0.71727-0.26487-1.0208-0.2842c-0.53038-0.047689-1.1368 0.076044-1.6678 0.028356-0.25778-0.018689-0.51556-0.34671-0.70502-0.42082-0.037378 0.99889-1.2947 1.577-1.76 2.0171 1.1722 0.043178 2.3097-0.73338 3.4478-0.73338 0.18947 0 0.36218-0.0045111 0.493 0.043178-0.98278 0.86678-2.0674 1.0382-3.1578 1.3417-0.96667 0.26551-1.9868 0.8236-2.8323 0.99502 0.58387 0.43758 1.604 0.15982 2.0468 0.53424-0.12889 0.047044-0.26744-0.13727-3.2222-0.032867-0.80556 0.028356-3.2306 1.0614-3.4864 1.0614-0.19333 0-0.11407-0.038022-0.11407-0.038022 2.5017-1.3218 5.374-1.6337 7.9267-4.5246 0.22749-0.25778 0.29258-0.70889 0.55809-0.98471 0.19913-0.2088 1.3752-0.82231 1.3707-1.2489v-0.25004h-0.32673c-0.18947-0.0070889-1.4996 0.79073-2.2208 1.0311-0.66036 0.2164-1.3468 0.34299-2.041 0.37636-2.5024 0.1044-6.6507 2.4792-7.8732 5.664-0.15144 0.39827-0.26616 0.74498-0.4756 0.96216-0.20687-0.074756-0.40858-0.15273-0.5974-0.15273-0.29387 0-1.024 0.22813-1.024 0.83778 0.075294 0.189 0.16336 0.37266 0.26358 0.54971 0.072085 0.14415 0.1624 0.27844 0.26873 0.39956-0.64444 0.70309-1.0382 1.5821-1.3533 2.2259 0.35122-0.22556 0.64444-0.2204 0.93316-0.33318 0.16047-0.39182 0.41953-0.9512 0.90673-1.2502 0.26293 0.27389 0.62124 0.53102 0.76367 0.53102 1.1884 0 0.38667-1.0769 0.78493-1.5744 0.11987-0.14887 0.34736-0.24489 0.76882-0.24489l3.4877 0.15144c2.3703 0 4.6677-0.41502 7.3409-2.4154 0.23716-0.1798 0.60449-0.050911 0.82296-0.11729 0.46464-0.15144 0.90996-0.35058 1.3914-0.5336-0.24424-0.18818-0.55616-0.40278-0.79331-0.42211-1.3643-0.12309-1.9746-0.15209-2.4702-0.12889 0.29451-0.26164 0.4988-0.5278 0.73596-0.61351 1.0427-0.37893 3.7023-2.1402 4.0065-2.1402 0.094089 0 4.1128 2.1389 4.6677 2.7531-0.72436-0.0232-1.1826 0.064444-2.3948 0.12889-0.22749 0.0096667-0.59998 0.27518-0.71598 0.50782 0.55616 0.17336 1.0859 0.35316 1.6163 0.52393 0.14178 0.047044 0.4118-0.056711 0.51556 0.038667 0.87193 0.82489 4.0252 2.3419 5.191 2.3419h5.1375c0.018044 0 1.1097-0.29516 1.3134 0.16884 0.01708 0.055683 0.024491 0.11388 0.021911 0.17207 0 0.40793-0.26616 1.403 0.71984 1.403 0.25778 0 0.64444-0.43178 0.76367-0.60642 0.54004 0.4466 0.70889 0.88482 0.87838 1.3533 0.31836 0.10376 0.60449-0.049622 0.95636 0.30933-0.26551-0.79009-0.88611-1.5647-1.3443-2.2324zm-30.221-4.5923c0.25778-0.25778 0.35509-0.47044 0.6148-0.73016 0.75851-0.75851 1.3733-1.0369 2.4102-1.3346 1.2683-0.36476 2.0364-0.33576 3.2177-0.92156-0.76882 0.76818-1.2199 1.2193-2.1421 1.7954-0.48011 0.29773-0.79718 0.40342-1.3063 0.65282-0.64444 0.31771-0.96667 0.58-1.642 0.80684-0.81587 0.27904-1.2676 0.47109-2.0622 0.79718 0.27904-0.47044 0.52587-0.68182 0.90996-1.0659zm6.1648 2.3883c-0.26938 0.10569-0.41309 0.25778-0.69149 0.34607-0.93122 0.28807-1.5177 0.33576-2.4972 0.33576-1.2199 0-1.9108 0.029-3.1307 0.038667-0.12438-0.038667-0.37442 0.0090222-0.33576-0.11536 0.028356-0.10569 0.17271-0.096022 0.26809-0.14436 0.18302-0.086356 0.29838-0.15338 0.49042-0.23007 0.64444-0.2784 1.0466-0.42276 1.7284-0.53811 1.2296-0.21138 1.9482-0.26809 3.1984-0.26809 0.70889 0 1.6472-0.13791 2.358-0.13791-0.21202 0.31578-1.024 0.56904-1.3881 0.7134zm17.178 0.9454c-1.2393 0-1.9404-0.34607-3.083-0.84487-0.59611-0.25778-0.96022-0.32673-1.566-0.56647l0.23136-0.116c0.72951-0.0096667 1.1516-0.038022 1.8824-0.038022 1.209 0 1.8824 0.23007 3.0534 0.56647 0.75916 0.22104 1.566 0.609 2.3342 0.80104-0.90351 0.030289-1.9501 0.19784-2.8523 0.19784zm1.4068-2.8278c-0.7482-0.3074-1.0956-0.65282-1.8431-0.96022-0.8642-0.35573-1.383-0.54713-2.1035-1.1523-0.45111-0.37507-0.76818-0.55744-1.0659-1.0666 1.7284 0.72049 2.8903 0.60513 4.591 1.4506 0.91189 0.45111 1.1426 1.0756 1.7671 1.8824 0.19333 0.25778 0.33576 0.39376 0.48913 0.68182-0.57678-0.54778-1.1052-0.53811-1.8354-0.83584h6.445e-4z" fill="#0090D7" fill-rule="nonzero"/>
<path id="Shape" d="m50.943 20.79c-0.35509-1.421-0.83778-2.1911-1.7961-3.2938-0.60384-0.70051-0.94024-1.1046-1.7278-1.6034-0.7018-0.44209-1.0956-0.70889-1.8347-1.0762 0.039869 0.24124 0.11774 0.47464 0.23071 0.69149 0.16304 0.25004 0.2494 0.43242 0.42211 0.68182 0.53811 0.77784 0.93251 1.1336 1.604 1.8044 1.0859 1.0852 3.1017 2.7943 3.1017 2.7943v0.0012889zm-3.1681-11.932c2.5623 3.1397 5.6614 6.7564 5.6614 10.122 0 0.75787 0.0754 1.024 0.0754 1.2128 0 0.49364-0.45433 2.3509-0.45433 2.503 0 0.22749 0.986 0.39827 0.986 1.0234 0 0.41696-0.47882 0.61287-0.84422 0.76431-0.064444 0.26938-0.36927 0.75207-0.36927 0.94218s0.22749 0.64444 0.22749 0.83391c0 0.18947-0.46207 1.0833-0.8816 1.6292-0.1044-0.79138-0.027711-1.5499-0.097311-2.2897-0.58322-0.28162-1.1439-0.39182-1.1439-0.93187 0-0.18947 0.60642-1.3649 0.60642-1.5544 0-0.48398-2.3148-2.5275-2.4863-2.6422-1.2509-0.83456-3.3286-2.4959-4.1631-3.8989-0.50202-0.85324-0.60771-1.9907-1.6034-2.853-0.21782-0.18947-0.84616-0.24747-0.91962-0.59482 0.19879-0.10313 0.41753-0.16204 0.64122-0.17271 1.4307 0 3.8802 1.2199 4.9977 1.9978 2.7582 1.9237 4.1393 4.7044 4.6368 7.0244 0.038667-0.12889 0.1856-0.30353 0.1856-0.493 0-0.18947-0.6728-1.7194-0.81458-2.572-0.36991-2.1988-1.1387-4.6361-3.0933-6.9445-0.0464 0.064444-0.036089-0.038022-0.036089 0.15144 0 1.1188 1.4365 3.3962 1.809 4.1998v0.27067c-0.80298-0.41824-2.766-1.8109-2.6712-2.7679 0.0096666-0.14242-0.21718-0.21396-0.25778-0.36604-0.10504-0.36927-0.24811-1.1091-0.24811-1.2986 0-0.18947 0.076044-0.83778 0.25327-3.297l0.0038667 0.0019333z" fill="#0090D7"/>
<path id="Shape" d="m7.0244 20.602-0.087 0.56196c0.9454-0.59869 1.5351-1.4352 2.3252-2.2259 1.1484-1.1516 2.0229-1.5009 2.9206-2.8272 0.25198-0.37056 0.60384-1.0446 0.80684-1.4513-1.4126 0.93316-2.4805 1.3327-3.6418 2.5655-0.43113 0.45498-0.66313 0.77849-1.1059 1.2244-0.61093 0.61029-0.96667 1.3321-1.2193 2.1576l0.0012889-0.0051556zm3.315-11.668 0.17787 3.0688c0 1.8579-0.65282 3.0656-3.0933 4.5788 0.59676-1.4088 1.2779-2.8478 1.7825-4.2785v-0.33898c-0.7863 1.0289-1.4744 2.1293-2.0551 3.2867-0.41244 0.8352-0.62769 1.9559-0.83584 2.7524-0.25778 0.97633-0.95571 2.7679-0.96151 2.9574v0.87451c0.043178-0.012244 0.0696 0.074756 0.10891 0.14113 0.31449-1.3185 0.99116-2.7498 1.693-4.0007 0.54971-0.986 1.9733-2.3258 3.0727-3.103 0.90222-0.63478 3.4439-1.9211 4.6477-1.9211 0.32261 0.021765 0.64104 0.085234 0.94733 0.18882-1.8579 0.49236-1.9224 2.6016-2.842 3.7868-0.61609 0.79589-1.5692 1.7213-2.4031 2.4315-0.14242 0.12373-4.0059 2.9-4.0059 3.7539 0 0.11342 0.23393 0.86291 0.57098 1.171 0.031578 0.064444 0.035444 0.19333 0.035444 0.38344 0 0.44531-0.19333 0.79589-1.0794 0.86613-0.044467 0.081844-0.20944 0.72242-0.079267 2.4283-0.17593-0.13984-0.88804-1.787-0.88804-1.8914 0-0.18947 0.15144-0.493 0.15144-0.68247 0-0.97633-1.2135-0.986-1.2135-1.7439 0-0.58 0.76624-0.70567 1.064-0.88482-0.53167-1.5467-0.45756-1.5041-0.45756-2.6796 0-4.332 1.6756-6.4032 5.6614-11.145h0.0012889z" fill="#0090D7"/>
<path id="Shape" d="m5.4842 33.494c-0.048333-1.1039-0.064444-1.6072-0.42276-2.6725-0.16304-0.49042-0.33576-0.89384-0.46078-1.3836-0.37507-1.4403-0.37507-2.349-1.1813-3.6256l-0.076689-0.15402c-0.029 0.20107-0.11729 0.89707-0.11729 1.0988 0 1.2193 0.13598 1.3211 0.13598 2.5404 0 1.1046 0.3654 1.7477 0.97956 2.6693 0.38667 0.5858 0.59547 1.1059 1.1432 1.5273zm0.45111-3.0257c0.039956-0.064444 0.029-0.19333 0.029-1.1793 0.33189-2.0693 1.1329-3.846 2.3754-5.8561 0.26487-0.43629 0.76624-0.80427 1.1787-0.83778-0.21911 0.86871-0.52136 1.9585-0.52136 2.1486s0.33189 1.4378 0.37958 2.1963c0.094733 1.2889 0.0754 1.7091 0.0754 1.8985 0 1.9978-2.1808 6.371-1.9842 7.384-0.65476-0.23071-0.59353-1.2992-0.59353-1.7729 0-2.1138 0.93896-5.1652 1.4178-7.3576v-0.72178c-0.99889 1.024-0.82876 2.4785-1.142 3.4355-0.12309 0.38667-0.19333 0.8758-0.38022 1.3211-0.1044 0.22749-0.34736 0.47818-0.34736 0.66764 0 0.18947 0.22749 1.2889 0.22749 1.4784s-0.15209 1.024-0.15209 1.2135 0.30289 1.4713 0.43564 2.2794c0.62253-0.24876 1.3849 0.38667 1.3849 0.98149 0 0.18947-0.37958 0.64444-0.37958 0.83391s0.60384 1.238 0.81973 1.8869c-0.49944-0.30096-0.9512-0.52651-1.4049-0.77333 0.58773-1.5525-1.8418-1.0556-1.8418-2.0983 0-0.32222 0.493-0.65798 0.75916-0.80298-2.8356-3.5528-4.0194-6.4954-4.0194-9.7376 0-0.18947 0.15144-1.8199 0.15144-2.0094 0-0.41696-0.45498-2.1705-0.45498-2.3123 0-0.35122 0.59096 0.25327 1.1497 1.1536 0.58 0.75851 1.4938 1.5563 1.702 2.2858 0.42662 1.4597 0.70889 2.8807 1.1387 4.2959l-0.0032222-0.0012889z" fill="#0090D7"/>
<path id="Shape" d="m52.587 33.273c0.48011-0.69213 0.95056-1.1336 1.258-1.9121 0.18238-0.46013 0.23007-0.74884 0.38667-1.229 0.11407-0.37442 0.24876-0.57549 0.30676-0.96022 0.14371-0.88353 0.20171-1.392 0.20171-2.2852v-1.1291l0.029-0.10053-0.029-0.15338v0.25391l-2.1531 7.5155zm-3.9537-10.689c0.406 0.20236 0.9976 0.52007 1.2064 0.92736 1.0047 1.9146 1.9752 3.8022 2.3303 5.7008v1.2567c0.64444-1.6111 0.51556-3.7023 1.7013-5.22 0.34091-0.43629 0.80427-0.90867 1.1362-1.3643 0.25778-0.34993 0.4988-1.2186 1.0724-1.2921-0.21847 1.0202-0.36798 2.1492-0.36798 2.3387 0 0.18947 0.1508 1.8579 0.1508 2.0474 0 3.5444-1.372 6.3742-4.0188 9.8175 0.31127 0.29773 0.75851 0.56131 0.75851 0.83778 0 0.7018-1.4887 1.0472-1.6111 1.1136-0.34993 0.19913-0.19913 0.71276-0.2436 0.957-0.45197 0.20226-0.89064 0.43301-1.3134 0.69084 0.13727-0.64444 0.7424-1.6234 0.7424-1.8135s-0.37829-0.64444-0.37829-0.83391c0-0.25778 0.27002-0.90996 0.71533-0.96667 0.15144-0.018689 0.37893-0.018689 0.58902-0.0406 0.016756-0.043178 0.51556-1.9701 0.51556-2.2916 0-0.18947-0.1508-0.986-0.1508-1.1755s0.22749-1.2889 0.22749-1.4784c0-0.18947-0.28291-0.43436-0.35831-0.67087-0.21847-0.66378-0.31513-1.3804-0.42856-2.0532-0.011027-0.15235-0.036051-0.30335-0.074756-0.45111-0.018023-0.12767-0.043414-0.25419-0.076044-0.37893-0.018689-0.0754-0.038667-0.23909-0.076044-0.38087-0.094089-0.39827-0.43758-0.99824-0.83778-1.488-0.047044 0.12889-0.042533 0.26616-0.042533 0.45498 0 1.6968 1.4397 5.0524 1.4397 7.6592 0 0.60642 0.082489 1.1188-0.58 1.6659-0.25262-1.0898-0.4118-2.2775-0.80942-3.2828-0.54069-1.3643-1.1877-2.8478-1.1877-4.2604-0.0020284-0.53282 0.023138-1.0654 0.0754-1.5956 0.058-0.68182 0.37958-1.9301 0.37958-2.1196 0-0.54069-0.2436-1.2934-0.48076-1.9675v-0.34284l-0.0045111 6.444e-4z" fill="#0090D7"/>
<path id="Path" d="m48.989 34.185c0.5684 0.53038 0.50331 1.6949 0.50331 2.2736 0 2.9947-1.3856 7.259-4.0258 9.7956 2.6055-1.4146 5.6544-4.3822 7.7108-7.1591-1.7 0.65733-3.3163 3.4607-5.0376 4.3274 0.29516-0.72564 0.60964-1.5364 1.0743-2.2478 0.18109-0.27453 4.8378-3.7326 5.5583-3.723h0.47882c-1.6756 3.1932-4.8733 8.2154-8.8933 9.7414-0.73853 0.27453-1.5905 0.55873-2.3387 0.87451-0.10633 0.21589-0.11342 0.60256-0.17078 0.72564-0.14178 0.34156-0.73596 0.62962-0.9164 0.62962-0.18044 0-0.64444-0.37893-0.83391-0.37893-0.18947 0-1.8579 0.68182-2.0474 0.68182-0.18947 0-0.24424-0.079267-0.40987-0.16949v-0.27067c0.54649-0.23909 1.1478-0.61544 1.74-0.97247-0.092719-0.14455-0.14542-0.31111-0.15273-0.48269 0-0.66313 0.53038-0.98536 0.986-0.98536 0.30289 0 0.51556-0.030933 0.72436 0.30289 0.19333-0.21653 0.56904-0.6264 0.8816-0.88224 0.12309-0.1044 0.348-0.016756 0.45111-0.12116 2.2188-2.1292 2.8646-4.544 3.7552-6.7048 0.29322-0.72113 0.48204-1.5132 0.70889-2.2556 0.0043408-0.041852-0.0074103-0.083787-0.032867-0.11729-1.6788 2.6467-2.6055 5.5532-4.0175 8.3211-0.087 0.16176-0.36862 0.39569-0.70889 0.54649-0.018044-0.10891-0.094089-0.14693-0.094089-0.3364s0.37893-0.83778 0.42598-1.2934c0.30418-3.0044 2.2846-5.954 3.7249-7.6786 0.51233-0.61609 0.74047-1.6343 0.957-2.4386l-6.444e-4 -0.0025778z" fill="#0090D7" fill-rule="nonzero"/>
<path id="Path" d="m9.1215 34.261c0.20751 0.58387 0.28227 1.6672 0.79396 2.1312 1.7445 1.5737 2.1312 2.9644 3.0695 4.6548 0.41953 0.73918 0.46851 1.7445 0.65798 2.6467 0.1044 0.52136 0.58838 1.4958 0.58709 1.6859v0.38667l-0.1856 0.17336c-0.64444-0.33576-0.81393-1.1877-1.0511-1.6897-1.0711-2.2491-1.9488-4.8095-3.5045-7.0335-0.045756 0.064444-0.0348-0.037378-0.0348 0.15209s0.77333 2.4031 1.2296 3.5122c0.58773 1.45 1.2077 2.891 2.2981 4.2533 0.69149 0.87193 1.2012 1.0015 2.1976 2.0139 0.33382-0.33962 0.53102-0.30289 0.72049-0.30289 0.66378 0 0.986 0.52071 0.986 1.024 0 0.18818-0.079911 0.32222-0.15273 0.44402 0.58967 0.35702 1.1929 0.73467 1.8186 1.0601-0.077333 0.18044-0.30096 0.35251-0.49042 0.35251s-1.896-0.68182-2.0854-0.68182c-0.18947 0-0.60707 0.37893-0.79653 0.37893-0.53102 0-1.2006-0.65927-0.94476-1.236-2.4147-0.92736-4.8166-2.1209-7.0728-4.3867-2.019-2.0352-2.7795-4.1998-4.3764-6.3349 0.10956-0.020622 0.033511-0.096667 0.22362-0.096667 1.2605 0 5.4707 3.257 5.8309 3.7307 0.46464 0.61609 0.68569 1.3694 1.0569 2.0622v0.27196c-1.7542-1.2863-2.9464-3.6308-4.999-4.2624 2.0822 2.3432 5.0615 5.925 7.8977 7.0116-3.1114-2.8356-3.5876-5.7356-4.176-8.6207 0-1.1413-0.076044-1.1793-0.076044-1.3688 0-0.40729 0.2668-1.6272 0.58-1.9333l-0.0019333 0.0012889z" fill="#0090D7" fill-rule="nonzero"/>
<path id="Shape" d="m15.503 50.581c-0.56647-0.048333-1.3733 0.038667-1.3733 0.038667 1.2889 0.44209 1.8792 0.72371 3.1468 1.2045 0.5278 0.20042 1.1007 0.27196 1.6195 0.47367 1.0272 0.40342 1.6008 0.30933 2.715 0.30933 1.0956 0 2.1035 0.045111 3.1301-0.42791-0.86936-0.35509-1.838-0.47496-2.9226-0.8294-0.7923-0.258-1.6136-0.41646-2.445-0.47173-0.48011-0.029-0.74949-0.11471-1.2296-0.11471h-1.131c-0.59611 0-0.91253-0.12502-1.508-0.18238h-0.0019333zm20.88 1.0388c-0.70889 0.19333-3.1204 0.5278-3.1204 0.5278 0.54713 0.13469 0.88289 0.22104 1.45 0.22104 0.47947 0 2.7782 0.32222 3.1049 0.32222 0.23007 0 1.3997-0.15016 1.6292-0.16949 0.76882-0.076689 1.2586 0.028356 1.9494-0.30804 0.47044-0.23007 0.78751-0.28936 1.2393-0.54907s1.0788-0.75851 1.5396-1.0266c-0.44251 0.16981-0.9105 0.26371-1.3843 0.27776-1.2006 0-1.983 0.16627-3.1829 0.16627-1.2773 0-1.9888 0.20171-3.2274 0.53811h0.0025778zm-20.935-6.7325h0.27582c3.5554 3.2113 7.4543 1.9726 10.988 6.1306 0.12889-0.072822 0.18689-0.31513 0.42404-0.50396 0.13276-0.1044 0.36476-0.10311 0.55487-0.10311 0.51169 0 1.0234 0.34156 1.0234 0.94733 0 0.19011-0.16304 0.55744-0.37958 0.76238 0.14564 0.20236 0.53102 0.64058 0.72113 0.64058s0.50396-0.36798 0.72113-0.57098c-0.22104-0.27776-0.37958-0.75529-0.37958-0.9454 0-0.54907 0.72887-0.90996 1.024-0.90996 0.19849 0 0.70051 0.35444 0.9164 0.60707 1.0169-0.58322 2.4244-2.1492 3.4678-2.5572 0.98536-0.37829 1.9643-0.82489 2.9593-1.1381 1.403-0.44531 3.1771-0.70889 4.6213-2.3574h0.27904c-1.0691 1.2805-2.9 4.9152-4.9268 4.9152-0.23361 0.011521-0.46688-0.028751-0.68311-0.11793 0.61931-0.13984 1.8689-0.67989 2.1383-1.7123-0.79331 0.4582-1.6111 0.99051-2.465 1.3411-1.5634 0.65411-3.1745 1.0092-4.7534 2.3458 0.064444 0.047689 0 0.11278 0.18947 0.11278 0.18947 0 1.4958-0.6728 2.2646-0.88998 1.2509-0.35058 2.8948-0.59804 4.1779-0.77784l1.8212-0.076044c2.5101-0.19333 5.3457-0.37313 7.232-1.5879v0.27776c-2.0654 2.2195-5.5055 4.6484-7.9222 4.6484h-5.2136c-0.18947 0-1.3153-0.14242-1.9121-0.25778-0.28484-0.047044-0.95056-0.33576-1.2154-0.65476-0.50653 0.22556-1.0311 0.45111-1.5467 0.72178 1.1568 0.66893 2.6512 1.461 3.4839 2.2897-0.56904-0.0348-1.0782 0.3596-1.635 0.62769-0.39053-0.47689-0.4176-1.2644-1.2244-1.7278-0.41696-0.23716-1.2328-0.69729-1.4216-0.69729-0.24682 0-1.9778 1.2058-2.0732 1.3482-0.18947 0.28484-0.31836 0.67409-0.42856 0.98858 0 0 0.036733 0.089578-0.15273 0.089578-0.41696 0-0.76173-0.5394-1.6285-0.6322 0.9396-0.87451 2.7576-1.9217 3.4858-2.2865-0.43371-0.19333-1.2889-0.64444-1.4784-0.64444-0.18947 0-0.6728 0.40729-1.0517 0.50138-0.74884 0.19913-1.5982 0.25778-2.358 0.33318l-3.8667 0.076044c-2.9 0.13276-6.389-1.8985-9.0506-4.7257v-0.27518c2.0377 1.3778 3.683 1.0782 5.4133 1.4378l1.894 0.0754c2.6351 0.1798 5.6344 0.57291 8.2566 1.8206l0.12051-0.116c-2.4141-2.0364-4.8391-1.836-7.2345-3.7532 0 0-0.045756-0.074756-0.045756 0.11471 0 0.44596 1.5583 1.5737 2.1988 1.664-0.21566 0.090399-0.44895 0.13093-0.68247 0.11858-1.905 0-3.7462-3.2957-4.9248-4.9171h0.0019333z" fill="#0090D7"/>
<path id="Path" d="m46.529 24.94c-0.080556-0.11729-0.10053-0.13533-0.16949-0.10053s-0.20493 0.10311-0.72693-0.051556c-0.58967-0.17464-1.0446-0.43049-1.4822-0.67731-0.6264-0.35187-1.218-0.68504-2.1054-0.72178-0.8874-0.036733-1.7883 0.3712-2.5056 0.69987-0.49236 0.2262-0.91769 0.42147-1.2077 0.40858-0.71469-0.031578-0.97827-0.27647-1.3108-0.58709-0.44724-0.41631-1.004-0.9338-2.8497-1.2618-0.99116-0.17658-1.8257-0.080556-2.6313 0.012244-0.65024 0.074756-1.2631 0.145-1.925 0.074111l-0.31191-0.030933c-0.64831-0.061222-0.91704-0.087-1.8805-0.65927l-0.039956-0.022556 0.0058 0.045756 0.11213 1.0131v0.016756l0.016111 0.0032223 0.38667 0.082489c0.63929 0.13662 1.1014 0.23587 1.8566 0.25069 0.61611 9.472e-4 1.2317-0.034127 1.8438-0.10504 0.9106-0.087 1.7722-0.16884 2.6519 0.0051555 0.59353 0.11793 0.91124 0.32802 1.3914 0.64444l0.1508 0.10053 1.2328 8.6588c-0.62897-0.063791-1.2633-0.052108-1.8895 0.0348-0.87322 0.1044-1.4996 0.45111-2.106 0.78171-0.58902 0.32222-1.2 0.65991-2.041 0.7772-0.75045 0.11961-1.5134 0.13954-2.2691 0.059289h-0.026422v0.027067l0.044467 0.67151v0.016756l0.016756 0.0045111c1.9056 0.45111 3.2506-0.2204 4.437-0.81264 0.59418-0.29644 1.1548-0.57549 1.7187-0.67538 0.55744-0.20429 1.2012-0.1972 1.8824-0.18947 1.0376 0.010956 2.1099 0.022556 3.0779-0.68118 0.83778-0.61093 0.98536-0.8758 1.2244-1.314 0.18173-0.33382 0.40729-0.74949 1.0169-1.4867 0.39827-0.48398 1.3114-0.69922 1.9791-0.85647 0.3306-0.077978 0.59224-0.13984 0.72887-0.21524 1.0814-0.59676 1.8444-1.4487 2.0422-2.2788 0.13984-0.57033 0.023844-1.1291-0.33833-1.6607z" fill="#0090D7" fill-rule="nonzero"/>
<path id="a" d="m31.661 26.724c-0.10504 0.49944-0.13533 0.65024-0.22684 1.2528-0.014178 0.097956 0.021267 0.11922 0.064444 0.18173 0.10569 0.16627 0.45949 0.11084 0.75593 0.090867 0.27131-0.018689 0.59353 0.092156 0.67796-0.16627 0.021303-0.062124 0.026622-0.12861 0.015467-0.19333-0.16627-0.67796-0.029644-0.64831-0.33253-1.3888-0.084422-0.20687-0.66764-0.33576-0.85969-0.060578-0.064444 0.096022-0.064444 0.15338-0.091511 0.28678l-0.0032222-0.0032222zm-2.5133 5.316c0.49687-2.8033 0.5742-3.9253 0.9744-6.5089 0.03436-0.29086 0.15796-0.56394 0.3538-0.78171 0.25778-0.28678 0.95313-0.21073 1.6246-0.19913 0.74111 0.013533 1.6859-0.12889 1.8373 0.2958 0.043822 0.12373 0.10891 0.25327 0.15273 0.38344 0.81458 2.3542 1.0717 3.9852 1.7522 5.9289 0.067133 0.14918 0.067133 0.31998 0 0.46916-0.12502 0.32996-0.47238 0.30804-0.81587 0.39247-0.30933 0.076044-0.52587 0.17916-0.81458 0.045111-0.15144-0.0696-0.28291-0.10247-0.33253-0.27131-0.1508-0.51556-0.1508-1.6008-0.42082-1.5705-0.52716 0.058644-2.0074-0.094733-2.1131 0.13211-0.15853 0.34156-0.28871 1.7355-0.42276 1.9069-0.18302 0.23329-0.43629 0.17851-0.73144 0.20816-0.39956 0.039311-0.93058 0.0464-1.0208-0.14822-0.0464-0.10053-0.048333-0.14113-0.0232-0.28484v0.0025778z" fill="#1D1D1B"/>
<path id="Path" d="m15.933 38.381c-0.2668 0.25327-0.62704 1.0311-0.58 1.6756 0.022556 0.32222 0.14242 0.56582 0.35638 0.71856 0.076521 0.062078 0.1762 0.087937 0.27324 0.070889 0.23973-0.047044 0.47496-0.38087 0.77913-0.85904l-0.19011-2.2427c-0.20236 0.20816-0.40858 0.41824-0.63864 0.63671z" fill="#1D1D1B" fill-rule="nonzero"/>
<path id="b" d="m28.796 35.075-1.3997-13.056v-0.0051556c-0.20491-0.63481-0.56742-1.2073-1.0537-1.664-0.45433-0.42404-1.0363-0.76947-1.7787-1.0543-1.1374-0.43758-2.5958-0.45562-4.2166-0.052844-1.4626 0.37664-2.8552 0.98589-4.1244 1.8044l-0.010311 0.0064444v0.0116l-0.057356 1.1233v0.018689l0.018044 0.0045111c2.5133 0.73016 2.6686 3.6198 2.8066 6.1693l0.025778 0.46722c0.13662 2.3529 0.12889 4.1045-0.31707 5.5648-0.23844 0.77784-0.61093 1.4887-1.171 2.2304l0.19978 1.9101c0.93702-1.2509 2.3948-2.6667 4.9532-3.3028l0.29773-0.074111c2.0822-0.52007 2.862-0.71469 5.8-0.080556l0.031578 0.0070889-0.0038666-0.028356z" fill="#1D1D1B" fill-rule="nonzero"/>
<path d="m16.145 19.247c-0.038667-0.32222-0.39311-0.53747-0.79267-0.4872-0.39956 0.050267-0.69149 0.34993-0.65347 0.66958 0.038022 0.31964 0.39311 0.53747 0.79202 0.4872 0.39891-0.050267 0.69213-0.34993 0.65411-0.66958z"/>
<path d="m15.66 20.436c0.032222-0.0038667 0.064444-0.013533 0.0928-0.018689l2.2633 24.089 0.62833-0.059933-2.2755-24.252c0.42727-0.25456 0.6902-0.66636 0.63671-1.0994-0.078622-0.63993-0.80684-1.0775-1.6272-0.97698s-1.4229 0.69987-1.3443 1.3443c0.045756 0.37571 0.31836 0.67796 0.69922 0.84616l2.1956 23.142 0.32802-0.030933-2.1821-23.003c0.19278 0.037469 0.39027 0.044211 0.58516 0.019978zm-0.96151-1.0066c-0.038022-0.32222 0.25456-0.61931 0.65347-0.66958 0.39891-0.050267 0.754 0.1682 0.79267 0.4872 0.038667 0.319-0.25391 0.61931-0.65411 0.66958-0.4002 0.050267-0.75271-0.1682-0.79138-0.4872h-6.444e-4z" fill="#1D1D1B" fill-rule="nonzero"/>
</g>
</g>
</svg>
