<?xml version="1.0" encoding="UTF-8"?>
<svg version="1.1" viewBox="0 0 80 80" xmlns="http://www.w3.org/2000/svg">
<title>1 – Fundamentals/Logos/Clubs/Bremen SVW</title>
<g fill="none" fill-rule="evenodd">
<rect width="80" height="80"/>
<g transform="translate(18 8)" fill-rule="nonzero">
<polygon id="a" points="21.5 0 0 32 21.5 64 43 32" fill="#009655"/>
<path d="m9.8757 27.606c0-1.5225 0.18132-3.5556 1.1467-5.462 0.65933-1.2978 1.9056-2.5913 3.837-2.4889 0.70233 0.036267 2.8373 0.52907 2.853 2.8857 0.0057333 1.1001-0.6622 3.1118-3.655 3.1118 0 0-0.37123 2.9419-0.37123 4.475 0 1.3639 0.027233 7.4844 2.3041 12.297l5.4467-11.996 5.1858 12.025s2.193-5.3504 2.193-9.9477c0-4.5305-1.2728-7.5861-2.337-9.2039-1.5208-2.3147-3.478-3.1182-4.3824-3.0578-0.68125 0.59594-1.5724 0.90039-2.479 0.84693-1.8246-0.128-2.9383-1.4094-2.9648-3.0841-0.022217-1.3916 0.92522-2.9433 2.365-3.8549 1.3516-0.8576 3.756-0.77653 5.3033-0.29867 2.4918 0.76871 4.6268 3.461 5.7333 5.4187 1.0442 1.8489 2.1371 5.5595 2.145 10.401 0.0085627 4.0284-1.4692 10.156-3.3497 14.817-1.8454 4.5582-2.929 6.4249-2.929 6.4249l-4.4856-8.9877-4.439 8.9941s-4.2584-8.9223-5.3858-13.002-1.7329-8.8654-1.7329-10.311l-0.0014333-0.0028445z" fill="#fff"/>
<path d="m21.5 62.162-20.265-30.162 20.265-30.162 20.265 30.162-20.265 30.162zm-18.746-30.162 18.746 27.901 18.746-27.901-18.746-27.901-18.746 27.901z" fill="#fff"/>
</g>
</g>
</svg>
