<?xml version="1.0" encoding="utf-8"?>
<!-- Generator: Adobe Illustrator 24.0.1, SVG Export Plug-In . SVG Version: 6.00 Build 0)  -->
<svg version="1.1" id="Logo" xmlns="http://www.w3.org/2000/svg" xmlns:xlink="http://www.w3.org/1999/xlink" x="0px" y="0px"
	 viewBox="0 0 188 47" style="enable-background:new 0 0 188 47;" xml:space="preserve">
<style type="text/css">
	.st0{fill-rule:evenodd;clip-rule:evenodd;}
</style>
<g>
	<path id="DERBYSTAR" class="st0" d="M81.4,12.8h0.7c1.3,0,2.2,0.5,2.2,2.7c0,2.5-1,3.1-2,3.1h-0.9C81.4,18.6,81.4,12.8,81.4,12.8z
		 M75.4,7.5h9c4.1,0,5.9,2.5,5.9,6.8c0,4.1-1.5,5.9-3.6,6.3v0.1c1.2,0.1,2.3,0.8,2.8,2.1c0.5,1.2,0.6,2.9,0.6,4.4v6.3h-6
		c0,0,0-6.3,0-7.6c0-2.2-0.6-2.6-1.6-2.6h-1.1v10.2h-6C75.4,33.5,75.4,7.5,75.4,7.5z M178.2,12.8h0.7c1.3,0,2.2,0.5,2.2,2.7
		c0,2.5-1,3.1-2,3.1h-0.9V12.8z M172.3,7.5h9c4.1,0,5.9,2.5,5.9,6.8c0,4.1-1.5,5.9-3.6,6.3v0.1c1.2,0.1,2.3,0.8,2.8,2.1
		c0.5,1.2,0.7,2.9,0.7,4.4v6.3h-6c0,0,0-6.3,0-7.6c0-2.2-0.8-2.6-1.8-2.6h-1.1v10.2h-6v-26H172.3z M164.1,29.5h-4.3l-0.6,4h-6
		L158,7.6h8.1l4.7,25.9h-6L164.1,29.5z M163.4,23.8h-3l1.5-10.6h0.1L163.4,23.8z M141,13.5h4.2v20h6v-20h4.2v-6h-14.3L141,13.5
		L141,13.5z M133.7,15v1.4h5.9V15c0-4.3-1.1-7.9-7.5-7.9c-2.5,0-4.1,0.7-5.2,1.6c-1.5,1.2-2.4,3.1-2.4,6.7c0,3.8,1.1,5.2,4.6,7.2
		c1.1,0.6,2.3,1.2,3.2,1.7c0.8,0.5,1.4,0.9,1.4,2.6c0,1.1-0.4,2.3-1.6,2.3c-1.1,0-1.8-1-1.8-2.3v-2.4h-6v1.9c0,5.7,2.7,7.5,7.6,7.5
		c5.9,0,8.4-2.4,8.4-8.4c0-9.2-9.5-6.6-9.5-11.7c0-1,0.5-1.9,1.5-1.9c1.1,0,1.5,1,1.5,2.1L133.7,15z M115.7,16.6L115.7,16.6l-3.4-9
		h-6l6.4,15.7v10.2h6V23.3l6.4-15.7h-6L115.7,16.6z M97.8,22.3h1.1c1.4,0,1.9,1.4,1.9,3.1s-0.6,2.8-1.9,2.8h-1L97.8,22.3L97.8,22.3z
		 M91.9,7.5h8.6c3.7,0,6,2.1,6,6.4c0,4.1-2.1,5.5-3.4,5.9v0.1c1.2,0.1,3.9,0.9,3.9,6.1s-2.5,7.5-6.2,7.5h-8.9V7.5z M97.8,12.8h0.8
		c1.2,0,1.8,0.8,1.8,2.5c0,1.9-1,2.5-1.7,2.5h-0.9C97.8,17.8,97.8,12.8,97.8,12.8z M61,33.5h12.9v-6H67v-4.3h6.4v-6H67v-3.8h6.9v-6
		H61V33.5z M50.2,12.8h0.9c1.9,0,2.1,1.3,2.1,4v7.6c0,2-0.2,4-1.7,4h-1.2V12.8H50.2z M44.3,7.5h8.6c2.7,0,4.4,1.3,5.3,3.4
		c0.9,2,1.1,3.4,1.1,9.6c0,5.7-0.2,13-6.4,13h-8.7L44.3,7.5L44.3,7.5z"/>
	<path id="STAR" d="M40,20.5l-14.6,4.9L20.5,40l-4.9-14.6L1,20.5l14.6-4.9L20.5,1l4.9,14.6L40,20.5z"/>
	<path id="THE_BALL_1_" d="M61,37.8h5.4v0.9h-2.2v7.8h-1v-7.8H61C61,38.7,61,37.8,61,37.8z M76.9,46.5v-8.7h1v3.6h3.3v-3.6h1v8.6h-1
		v-4.2h-3.3v4.2L76.9,46.5L76.9,46.5z M93.2,46.5v-8.7h4.3v0.9h-3.4v2.9h3.2v0.9h-3.2v3.2h3.4v0.9h-4.3V46.5z M120.3,46.5v-8.7h2.6
		c1.5,0,2.7,0.5,2.7,2.2c0,0.8-0.3,1.4-1,1.8l0,0c0.9,0.5,1.1,1,1.1,2.1c0,1.8-1,2.5-2.6,2.5L120.3,46.5L120.3,46.5z M122.3,41.2
		c0.9-0.1,1.3,0,1.3-1c0-0.9-0.6-0.8-1.3-0.8V41.2z M122.3,44.9c1,0,1.4,0,1.4-1.1c0-1-0.6-1-1.4-1V44.9z M135.7,46.5l1.9-8.6h2.4
		l1.9,8.6h-2.1l-0.3-1.7h-1.6l-0.2,1.7H135.7z M138.8,39.4L138.8,39.4l-0.6,3.9h1.2L138.8,39.4z M151.8,46.5v-8.7h2v6.9h2.5v1.7
		L151.8,46.5L151.8,46.5z M166.3,46.5v-8.7h2v6.9h2.5v1.7L166.3,46.5L166.3,46.5z"/>
</g>
</svg>
