<svg id="Layer_1" data-name="Layer 1" xmlns="http://www.w3.org/2000/svg" xmlns:xlink="http://www.w3.org/1999/xlink" viewBox="0 0 256.43 256.43"><defs><style>.cls-1{fill:none;}.cls-2{clip-path:url(#clip-path);}.cls-3{fill:url(#linear-gradient);}.cls-4{clip-path:url(#clip-path-2);}.cls-5{fill:url(#linear-gradient-2);}.cls-6{clip-path:url(#clip-path-3);}.cls-7{fill:url(#radial-gradient);}.cls-8{fill:#1c3e6f;}.cls-9{fill:#6d1a26;}.cls-10{fill:#a92023;}</style><clipPath id="clip-path" transform="translate(-40.02 -23.93)"><path class="cls-1" d="M40,152.16A128.22,128.22,0,1,0,168.25,23.93,128.22,128.22,0,0,0,40,152.16"/></clipPath><linearGradient id="linear-gradient" x1="-378" y1="738" x2="-377" y2="738" gradientTransform="matrix(0, 261.02, 261.02, 0, -192504.35, 98662.17)" gradientUnits="userSpaceOnUse"><stop offset="0" stop-color="#b9bebe"/><stop offset="0.11" stop-color="#c9cccb"/><stop offset="0.19" stop-color="#d8d8d6"/><stop offset="0.36" stop-color="#c3c5c4"/><stop offset="0.52" stop-color="#b1b9bb"/><stop offset="0.76" stop-color="#9fa1a4"/><stop offset="0.96" stop-color="#949597"/><stop offset="0.96" stop-color="#949597"/><stop offset="1" stop-color="#949597"/></linearGradient><clipPath id="clip-path-2" transform="translate(-40.02 -23.93)"><path class="cls-1" d="M55.76,152A112.86,112.86,0,1,0,168.62,39.17,112.86,112.86,0,0,0,55.76,152"/></clipPath><linearGradient id="linear-gradient-2" x1="-378" y1="738" x2="-377" y2="738" gradientTransform="matrix(0, -229.91, -229.91, 0, 169799.53, -86664.17)" gradientUnits="userSpaceOnUse"><stop offset="0" stop-color="#dbdcde"/><stop offset="1" stop-color="#808184"/></linearGradient><clipPath id="clip-path-3" transform="translate(-40.02 -23.93)"><path class="cls-1" d="M56.85,152a111,111,0,1,0,111-111,111,111,0,0,0-111,111"/></clipPath><radialGradient id="radial-gradient" cx="-378" cy="738" r="1" gradientTransform="matrix(0, -163.06, -163.06, 0, 120507.16, -61517.59)" gradientUnits="userSpaceOnUse"><stop offset="0" stop-color="#fff"/><stop offset="0.47" stop-color="#fff"/><stop offset="0.54" stop-color="#f7f7f8"/><stop offset="0.66" stop-color="#e1e0e6"/><stop offset="0.67" stop-color="#dfdee4"/><stop offset="0.95" stop-color="#d8d9e5"/><stop offset="1" stop-color="#d8d9e5"/></radialGradient></defs><title>EASPORTS_Medallion_RGB</title><g class="cls-2"><rect class="cls-3" width="256.43" height="256.43"/></g><g class="cls-4"><rect class="cls-5" x="15.74" y="15.24" width="225.71" height="225.71"/></g><g class="cls-6"><rect class="cls-7" x="56.02" y="40.21" width="223.65" height="223.64" transform="translate(-41.16 -22.67) rotate(-0.43)"/></g><polygon class="cls-8" points="219.47 149.99 218.1 149.99 218.1 152.91 217.41 152.91 217.41 149.99 216.04 149.99 216.04 149.38 219.47 149.38 219.47 149.99"/><path class="cls-8" d="M264.18,176.84h-.63v-2.17a3.21,3.21,0,0,1,0-.39,1.71,1.71,0,0,1-.17.39l-1.11,1.73h-.14L261,174.64a2.44,2.44,0,0,1-.21-.36c0,.14.06.27.06.39v2.17h-.58v-3.52h.58l1.37,2.12,1.38-2.12h.54Z" transform="translate(-40.02 -23.93)"/><path class="cls-9" d="M118.81,79.72h68.8L177.05,96.5l-68.78,0Zm49.82,84.14H81.51l21.17-33.67H87.12L97.7,113.37h64.82L151.93,130.2H122.86l-10.73,16.85h46.78l42.76-67.92,53.23,84.73H234.82l-10.56-16.81h-31.5l10.61-16.88h10.29l-12-19.13Z" transform="translate(-40.02 -23.93)"/><path class="cls-10" d="M82.07,163.56l21.17-33.67H87.68l10.2-16.21H162l-10.22,16.21H122.69l-11.13,17.47h47.52l42.59-67.65,52.67,83.84H235l-10.56-16.81h-31.1l10.21-16.26h10.68l-12.55-20-33.22,53.09H82.07ZM119,80H187L176.87,96.19l-68,0Z" transform="translate(-40.02 -23.93)"/><path class="cls-8" d="M104.65,200.55a7,7,0,0,1-1.94,5.36A6.66,6.66,0,0,1,97.57,208l-8.68-.2a7.14,7.14,0,0,1-5.19-2.24,7.62,7.62,0,0,1-2.16-5.36c0-1.17-.05-2.34-.08-3.51l5.23.1c.29,1.09.58,2.18.86,3.28a2.69,2.69,0,0,0,2.78,2.1c2,0,3.89.08,5.84.12a2,2,0,0,0,1.76-.81,3,3,0,0,0,.59-2.08c0-1.3-.09-2.6-.12-3.9-.05-1.92-.88-2.91-2.51-2.94l-7.31-.12a7.12,7.12,0,0,1-5.16-2.27,7.85,7.85,0,0,1-2.2-5.37c0-1.7-.06-3.41-.1-5.11a7.21,7.21,0,0,1,2-5.25,6.8,6.8,0,0,1,5.14-2.17l8.55.05a7.08,7.08,0,0,1,5.16,2.14,7.28,7.28,0,0,1,2.12,5.33c0,1.07,0,2.14,0,3.22L98.81,183c-.28-1-.55-1.94-.83-2.91A2.66,2.66,0,0,0,95.27,178l-5.76,0a2.11,2.11,0,0,0-1.77.82,3.09,3.09,0,0,0-.63,2.09c0,1,0,2,0,3,0,1.87.85,2.81,2.48,2.83l7.32.09a7.08,7.08,0,0,1,5.19,2.32,7.78,7.78,0,0,1,2.31,5.41q.09,3,.19,6.06m24.43-21.71a3.07,3.07,0,0,1,.69,2.11c0,1.75,0,3.5-.05,5.25a3.17,3.17,0,0,1-.73,2.14,2.29,2.29,0,0,1-1.83.84h-8.6c0-3.73,0-7.46.11-11.17h8.6a2.26,2.26,0,0,1,1.81.83m7,.93a7.16,7.16,0,0,0-2.14-5.31,7.25,7.25,0,0,0-5.36-2.21H112.49c-.33,11.87-.33,24.05,0,35.92h6.32c-.12-4.35-.2-8.75-.23-13.17h9.84a7.63,7.63,0,0,0,7.64-7.65c0-2.54,0-5.06.07-7.58m55.46-.94a3.26,3.26,0,0,1,.69,2.11c0,1.48,0,3,0,4.45a3.21,3.21,0,0,1-.66,2.11,2.31,2.31,0,0,1-1.82.81h-8.3c0-3.45,0-6.89,0-10.31h8.28a2.26,2.26,0,0,1,1.82.83m8.34,29.34c-2-4.88-4-9.84-6.1-14.83a8.09,8.09,0,0,0,3.52-2.84,7.67,7.67,0,0,0,1.34-4.45q0-3.15-.06-6.28a7.7,7.7,0,0,0-7.74-7.52H175.1c.07,11.8.07,24.13,0,35.92h6.33c0-4.62.08-9.32.1-14h6c1.94,4.72,3.84,9.42,5.69,14Zm26.73-35.92H202.08c0,1.91.08,3.82.12,5.76h9.11c.18,10,.14,20.23-.13,30.16h6.31c.29-9.93.33-20.13.14-30.16h9.16c0-1.93-.08-3.85-.13-5.77m28.15,21.51a6.91,6.91,0,0,0-2-5.17,6.38,6.38,0,0,0-5-2.14l-7.28.1c-1.67,0-2.5-.9-2.47-2.8l0-3a3.21,3.21,0,0,1,.7-2.12,2.22,2.22,0,0,1,1.83-.84h5.79a2.51,2.51,0,0,1,2.6,2.05c.26.95.51,1.9.76,2.85l5.11,0c0-1,.05-2.08.06-3.13a7.07,7.07,0,0,0-1.91-5.21,6.78,6.78,0,0,0-5-2.14l-8.58-.09a7.06,7.06,0,0,0-5.34,2.18,7.36,7.36,0,0,0-2.25,5.37c0,1.75,0,3.49,0,5.24a7.39,7.39,0,0,0,2.15,5.44,6.85,6.85,0,0,0,5.26,2.11l7.33-.18c1.61,0,2.38.9,2.34,2.78,0,1.28,0,2.55-.09,3.83a3.37,3.37,0,0,1-.69,2.08,2.32,2.32,0,0,1-1.8.9c-1.94.09-3.89.16-5.83.24a2.36,2.36,0,0,1-2.7-1.93l-.72-3.26-5.48.18c0,1.2-.07,2.39-.11,3.58a6.71,6.71,0,0,0,2,5.29,6.64,6.64,0,0,0,5.21,1.88l8.67-.44a7.41,7.41,0,0,0,5.14-2.42,7.75,7.75,0,0,0,2.17-5.33l.12-5.86m-88.14-14a7.15,7.15,0,0,0-2.23-5.33,7.43,7.43,0,0,0-5.4-2.18h-8.53a7.46,7.46,0,0,0-5.45,2.21,7.31,7.31,0,0,0-2.3,5.31c-.07,6.88-.07,13.85,0,20.73a7.47,7.47,0,0,0,2.3,5.46,7.56,7.56,0,0,0,5.45,2.21H159a7.41,7.41,0,0,0,5.4-2.21,7.32,7.32,0,0,0,2.23-5.45V179.76m-7.06-.93a3,3,0,0,1,.71,2.11c0,6.15,0,12.37,0,18.51a3.11,3.11,0,0,1-.72,2.1,2.29,2.29,0,0,1-1.83.87H151.7a2.34,2.34,0,0,1-1.88-.87,3.33,3.33,0,0,1-.69-2.1c0-6.15,0-12.36,0-18.51a3.26,3.26,0,0,1,.69-2.11,2.37,2.37,0,0,1,1.88-.83h6.07a2.33,2.33,0,0,1,1.84.83" transform="translate(-40.02 -23.93)"/></svg>