<?xml version="1.0" encoding="UTF-8" standalone="no"?>
<svg
   xmlns:dc="http://purl.org/dc/elements/1.1/"
   xmlns:cc="http://creativecommons.org/ns#"
   xmlns:rdf="http://www.w3.org/1999/02/22-rdf-syntax-ns#"
   xmlns:svg="http://www.w3.org/2000/svg"
   xmlns="http://www.w3.org/2000/svg"
   xmlns:sodipodi="http://sodipodi.sourceforge.net/DTD/sodipodi-0.dtd"
   xmlns:inkscape="http://www.inkscape.org/namespaces/inkscape"
   version="1.1"
   id="svg2"
   xml:space="preserve"
   width="770.66669"
   height="373.44"
   viewBox="0 0 770.66669 373.44"
   sodipodi:docname="Lilac Wordmark.eps"><metadata
     id="metadata8"><rdf:RDF><cc:Work
         rdf:about=""><dc:format>image/svg+xml</dc:format><dc:type
           rdf:resource="http://purl.org/dc/dcmitype/StillImage" /></cc:Work></rdf:RDF></metadata><defs
     id="defs6" /><sodipodi:namedview
     pagecolor="#ffffff"
     bordercolor="#666666"
     borderopacity="1"
     objecttolerance="10"
     gridtolerance="10"
     guidetolerance="10"
     inkscape:pageopacity="0"
     inkscape:pageshadow="2"
     inkscape:window-width="640"
     inkscape:window-height="480"
     id="namedview4" /><g
     id="g10"
     inkscape:groupmode="layer"
     inkscape:label="ink_ext_XXXXXX"
     transform="matrix(1.3333333,0,0,-1.3333333,0,373.44)"><g
       id="g12"
       transform="scale(0.1)"><path
         d="m 2680.38,1732.95 c 35.25,-3.17 166.81,7.75 196.18,-122.47 124.66,119.96 100.45,277.9 11.43,340.36 -149.73,105.06 -309.3,9.02 -323.76,-99.64 -9.31,-69.88 31.43,-110.63 116.15,-118.25 m 3068.14,171.36 c -82.7,2.86 -204.83,-133.4 -304.63,-133.76 -65.78,-0.24 -70.67,50.07 -31.27,134.36 146.16,312.77 -31.34,302.8 -69.41,273.35 0,0 126.87,223.72 -96.89,222.91 -275.72,-1.01 -520.36,-232.29 -648.43,-576.35 -46.75,-117.14 -149.79,-367.53 -258.1,-398.64 -103.73,-28.16 -103.39,107.82 -169.68,132.43 440.7,296.96 445.74,536.76 376.58,618.39 -62.68,71.41 -270.91,94.05 -529.4,-173 63.24,237.09 242.52,382.89 285.56,621.37 22.43,140.44 -80.89,285.84 -277.18,52.11 -132.97,-157.81 -201.81,-446.42 -330.15,-815.02 -76.74,-223.98 -228.89,-627.04 -364.95,-627.54 -59.34,-0.21 -76.07,52.9 -57.54,199.19 35.15,286.7 265.79,616.4 346.45,853.56 60.06,158.11 0.52,251.47 -67.9,267.31 -91.52,17.21 -221.52,-69.52 -318.14,-306.75 -76.47,-164.02 -138.81,-389.41 -184.67,-645.46 -42.57,-213.62 -211.27,-633.071 -375.29,-611.731 -61.16,7.941 0.9,161.731 76,314.881 63.79,130.07 114.09,287.17 -20.58,287.4 -207.54,0.37 -359.77,-427.47 -384.34,-746.3 -11.94,-155.02 -17.21,-334.399 102.75,-333.95 147.59,0.52 339.4,155.231 518.8,424.918 12.97,-150.308 204.69,-350.008 574.45,186.212 5.48,-81.74 24,-202.919 85.8,-206.7 0,0 56.81,-15.738 115.5,117.44 58.67,133.18 122.62,301.33 136.04,333.32 31.31,74.67 89.76,88.72 95.23,-38.66 5.64,-130.78 40.48,-227.76 146.9,-227.37 208.96,0.76 390.09,192.29 442.08,264.61 29.98,-112.95 286.49,-152.96 565.96,185.31 12.44,-89.63 90.22,-219.96 442.13,54.26 222.05,170.41 241.77,295.7 178.32,297.9 M 3977.33,1684.88 c -7.96,-0.5 -22.09,6.62 -16.24,21.72 28.08,72.39 73.39,135.45 130.64,184.26 50.73,43.23 105.05,69.19 145.29,69.45 37.99,0.24 60.47,-23.24 58.65,-61.26 -1.39,-30.02 -19.64,-66.26 -54.63,-98.58 -124.25,-114.77 -253.18,-114.93 -263.71,-115.59 m 1196.81,367.82 c -120.2,-186.18 -77.12,-208.07 -165.11,-341.72 -70.74,-107.47 -168.91,-135.46 -205.51,-79.69 -36.59,55.81 0.4,179.13 82.61,275.48 82.24,96.36 342.57,230.42 288.01,145.93 M 2124.27,822.129 c 33.44,625.901 373.3,1145.711 385.01,1364.911 4.71,88.23 -42.23,157.67 -147.92,152.99 -178.33,-7.9 -497.19,-262.71 -656.69,-583.35 -88.25,269.79 -302.09,110.41 -402.88,-8.22 18.87,506.98 -136.23,550.4 -226.81,546.4 C 792.348,2282.34 497.188,1901.77 337.32,1625.89 189.508,1370.81 -186.816,610.762 112.449,565.48 186.492,554.27 261.492,638.832 313.242,834.16 508.633,1571.72 742.18,1740.55 836.949,1733.38 1087.78,1714.43 763.793,780.191 653.18,451 591.488,275.629 538.574,-8.66016 738.895,0.210938 962.551,10.1094 1056.39,573.711 1109.71,880.031 c 60.36,335.509 146.15,444.159 232,436.959 100.66,-12.04 58.42,-213.35 -8,-406.201 -59.79,-196.68 -264.78,-677.277 -23.61,-698.238 243.2,-8.492 232.53,432.539 299.4,710.461 101.75,418.598 215.41,701.458 337.36,677.968 150.23,-31.85 -200.78,-581.04 -224.05,-1016.691 -18.04,-337.758 134.51,-582.69916 355.87,-487.6171 233.14,110.7191 27.55,387.6991 45.59,725.4571"
         style="fill:#735fb5;fill-opacity:1;fill-rule:nonzero;stroke:none"
         id="path14" /></g></g></svg>
