<?xml version="1.0" encoding="UTF-8"?>
<svg width="688px" height="378px" viewBox="0 0 688 378" version="1.1" xmlns="http://www.w3.org/2000/svg" xmlns:xlink="http://www.w3.org/1999/xlink">
    <!-- Generator: Sketch 61 (89581) - https://sketch.com -->
    <title>topps_vector</title>
    <desc>Created with Sketch.</desc>
    <defs>
        <polygon id="path-1" points="0.509 0.744 646.1 0.744 646.1 316.94 0.509 316.94"></polygon>
        <polygon id="path-3" points="0.06 0.575 687.023 0.575 687.023 355.986 0.06 355.986"></polygon>
    </defs>
    <g id="topps_vector" stroke="none" stroke-width="1" fill="none" fill-rule="evenodd">
        <g id="Logo_Topps-(rot)">
            <g id="Group-3" transform="translate(20.000000, 61.000000)">
                <mask id="mask-2" fill="white">
                    <use xlink:href="#path-1"></use>
                </mask>
                <g id="Clip-2"></g>
                <path d="M538.372,102.38 C529.15,102.38 520.524,104.563 512.636,108.881 C506.41,104.65 498.878,102.38 490.777,102.38 L427.315,102.38 L449.787,50.893 L220.424,50.893 L235.155,0.744 L121.841,0.744 L115.385,19.74 C114.217,23.179 112.933,26.906 111.741,30.326 L107.375,41.98 C107.277,41.986 107.165,41.989 107.04,41.989 L38.202,41.989 L0.509,140.22 L71.249,140.22 C67.689,150.004 63.481,161.596 58.677,174.856 C45.748,210.546 32.613,246.972 32.479,247.35 C30.734,252.359 22.751,278.375 37.127,298.61 C45.542,310.453 59.211,316.975 75.617,316.975 L188.729,316.975 L188.721,317 L289.31,316.933 L311.179,257.563 L326.794,257.563 L305.173,317 L368.7,316.96 L368.694,316.975 L532.233,316.975 C559.84,316.975 573.63,299.415 577.422,289.058 C578.792,285.334 590.999,254.723 593.938,246.391 C595.28,242.582 611.78,193.159 611.9,189.345 L613.078,189.35 L646.1,102.38 L538.372,102.38" id="Fill-1" fill="#1A1919" mask="url(#mask-2)"></path>
            </g>
            <polyline id="Fill-4" fill="#1A1919" points="469.787 111.893 478.112 44.466 442.279 55.894 433.659 115.227 469.787 111.893"></polyline>
            <g id="Group-10">
                <mask id="mask-4" fill="white">
                    <use xlink:href="#path-3"></use>
                </mask>
                <g id="Clip-6"></g>
                <polyline id="Fill-5" fill="#1A1919" mask="url(#mask-4)" points="241.379 68.002 249.705 0.575 213.872 12.003 205.251 71.336 241.379 68.002"></polyline>
                <polyline id="Fill-7" fill="#1A1919" mask="url(#mask-4)" points="62.346 192.737 70.671 125.309 0 149.001 20.509 201.22 62.346 192.737"></polyline>
                <polyline id="Fill-8" fill="#1A1919" mask="url(#mask-4)" points="75.897 355.986 52.945 309.892 33.99 308.541 53.491 353.458 75.897 355.986"></polyline>
                <path d="M572.382,108.733 C562.568,108.733 553.389,111.056 544.995,115.652 C538.369,111.149 530.354,108.733 521.733,108.733 L454.198,108.733 L478.112,44.466 L234.029,44.466 L249.705,0.575 L129.12,0.575 L122.249,20.788 C121.006,24.449 119.64,28.415 118.37,32.056 L113.725,44.456 C113.62,44.462 113.501,44.466 113.368,44.466 L40.112,44.466 L0,149.001 L75.28,149.001 C71.491,159.413 67.013,171.749 61.901,185.861 C48.144,223.841 34.164,262.604 34.023,263.008 C32.165,268.339 23.669,296.022 38.968,317.556 C47.923,330.16 62.469,337.1 79.929,337.1 L200.3,337.1 L200.291,337.127 L307.335,337.056 L330.607,273.876 L347.227,273.876 L324.217,337.127 L391.82,337.084 L391.815,337.1 L565.851,337.1 C595.229,337.1 609.904,318.414 613.938,307.391 C615.396,303.429 645.166,222.361 648.295,213.496 C649.725,209.443 650.503,205.338 650.63,201.279 L651.884,201.285 L687.023,108.733 L572.382,108.733" id="Fill-9" fill="#1A1919" mask="url(#mask-4)"></path>
            </g>
            <path d="M672.53,118.733 L572.382,118.733 C560.22,118.733 550.888,123.079 544.163,128.024 C538.618,122.087 530.653,118.733 521.733,118.733 L439.808,118.733 L463.722,54.466 L219.839,54.466 L235.515,10.575 L136.282,10.575 L131.718,24.003 C130.454,27.725 129.063,31.763 127.774,35.458 L122.464,49.636 C121.339,51.913 118.854,54.466 113.368,54.466 L46.985,54.466 L14.548,139.001 L89.569,139.001 C84.425,153.085 77.856,171.177 71.304,189.266 C57.388,227.682 43.536,266.098 43.466,266.3 C41.892,270.815 34.669,294.239 47.12,311.764 C52.091,318.761 61.817,327.1 79.929,327.1 L214.151,327.1 L214.146,327.118 L300.36,327.061 L323.634,263.876 L359.169,263.876 C359.962,263.876 360.751,263.831 361.54,263.78 L338.499,327.118 L405.37,327.075 L405.362,327.1 L565.851,327.1 C589.708,327.1 601.409,312.53 604.554,303.936 C605.827,300.477 635.722,219.073 638.864,210.171 C641.14,203.718 641.218,197.136 639.149,191.221 L644.997,191.251 L672.53,118.733" id="Fill-11" fill="#FFFFFE"></path>
            <path d="M150.464,30.376 C150.464,30.376 141.583,56.501 141.06,56.501 C141.06,56.501 134.79,74.265 113.368,74.265 C91.946,74.265 60.595,74.265 60.595,74.265 L43.352,119.2 C43.352,119.2 118.593,119.2 118.071,119.2 C117.548,119.2 62.163,272.813 62.163,272.813 C62.163,272.813 50.146,307.302 79.929,307.302 C80.45,307.302 221.003,307.302 221.003,307.302 L237.2,262.888 L138.448,262.888 C138.448,262.888 123.296,261.319 128.521,246.169 L168.753,136.442 C168.753,136.442 175.544,119.2 195.923,119.2 L418.507,119.2 L435.228,74.265 L191.743,74.265 L207.417,30.376 L150.464,30.376" id="Fill-12" fill="#D8232A"></path>
            <path d="M643.835,138.534 L631.36,171.386 L589.888,171.188 C589.888,171.188 587.536,171.188 587.013,173.018 C586.491,174.845 580.481,191.044 580.481,191.044 C580.481,191.044 580.22,192.612 582.571,192.612 C585.185,192.612 614.181,192.612 614.181,192.612 C614.181,192.612 623.325,194.702 620.192,203.583 C617.056,212.464 585.968,297.112 585.968,297.112 C585.968,297.112 582.239,307.302 565.851,307.302 C544.95,307.302 433.659,307.302 433.659,307.302 L449.856,262.888 L552.788,262.888 C552.788,262.888 554.03,262.823 554.813,260.731 C555.599,258.643 565.851,231.276 565.851,231.276 L535.286,231.276 C535.286,231.276 519.872,229.97 524.837,216.384 C529.8,202.802 548.087,152.118 548.087,152.118 C548.087,152.118 556.187,138.534 572.382,138.534 C588.056,138.534 643.835,138.534 643.835,138.534" id="Fill-13" fill="#D8232A"></path>
            <path d="M219.116,208.925 C221.7,208.925 224.474,207.042 225.313,204.721 L235.073,177.772 C235.913,175.452 234.499,173.569 231.917,173.569 L207.755,173.569 C205.173,173.569 202.397,175.452 201.558,177.772 L191.8,204.721 C190.96,207.042 192.372,208.925 194.956,208.925 L219.116,208.925 Z M158.239,244.077 C150.528,244.077 146.312,238.466 148.819,231.538 L177.952,151.073 C180.46,144.147 188.743,138.534 196.454,138.534 L268.583,138.534 C276.294,138.534 280.513,144.147 278.005,151.073 L248.872,231.538 C246.364,238.466 238.081,244.077 230.37,244.077 L158.239,244.077 L158.239,244.077 Z" id="Fill-14" fill="#D8232A"></path>
            <path d="M442.935,208.925 L468.61,208.925 C471.192,208.925 473.966,207.042 474.808,204.721 L484.565,177.772 C485.403,175.452 483.993,173.569 481.411,173.569 L455.866,173.569 L442.935,208.925 Z M434.181,244.077 L410.905,307.27 L366.778,307.302 L428.169,138.532 L521.733,138.534 C529.444,138.534 533.663,144.147 531.155,151.073 L502.022,231.538 C499.515,238.466 491.231,244.077 483.522,244.077 L434.181,244.077 L434.181,244.077 Z" id="Fill-15" fill="#D8232A"></path>
            <path d="M318.579,208.925 L344.253,208.925 C346.837,208.925 349.612,207.042 350.452,204.721 L360.21,177.772 C361.05,175.452 359.638,173.569 357.054,173.569 L331.511,173.569 L318.579,208.925 Z M309.827,244.077 L286.55,307.27 L242.425,307.302 L303.815,138.532 L397.38,138.534 C405.091,138.534 409.306,144.147 406.802,151.073 L377.667,231.538 C375.161,238.466 366.878,244.077 359.169,244.077 L309.827,244.077 L309.827,244.077 Z" id="Fill-16" fill="#D8232A"></path>
            <path d="M331.511,173.569 L357.054,173.569 C359.638,173.569 361.05,175.452 360.21,177.772 L350.452,204.721 C349.612,207.042 346.837,208.925 344.253,208.925 L318.579,208.925 L331.511,173.569 Z M359.169,244.077 C366.878,244.077 375.161,238.466 377.667,231.538 L406.802,151.073 C409.306,144.147 405.091,138.534 397.38,138.534 L303.815,138.532 L242.425,307.302 L286.55,307.27 L309.827,244.077 L359.169,244.077 Z M455.866,173.569 L481.411,173.569 C483.993,173.569 485.403,175.452 484.565,177.772 L474.808,204.721 C473.966,207.042 471.192,208.925 468.61,208.925 L442.935,208.925 L455.866,173.569 Z M483.522,244.077 C491.231,244.077 499.515,238.466 502.022,231.538 L531.155,151.073 C533.663,144.147 529.444,138.534 521.733,138.534 L428.169,138.532 L366.778,307.302 L410.905,307.27 L434.181,244.077 L483.522,244.077 Z M194.956,208.925 C192.372,208.925 190.96,207.042 191.8,204.721 L201.558,177.772 C202.397,175.452 205.173,173.569 207.755,173.569 L231.917,173.569 C234.499,173.569 235.913,175.452 235.073,177.772 L225.313,204.721 C224.474,207.042 221.7,208.925 219.116,208.925 L194.956,208.925 Z M230.37,244.077 C238.081,244.077 246.364,238.466 248.872,231.538 L278.005,151.073 C280.513,144.147 276.294,138.534 268.583,138.534 L196.454,138.534 C188.743,138.534 180.46,144.147 177.952,151.073 L148.819,231.538 C146.312,238.466 150.528,244.077 158.239,244.077 L230.37,244.077 Z M572.382,138.534 C556.187,138.534 548.087,152.118 548.087,152.118 C548.087,152.118 529.8,202.802 524.837,216.384 C519.872,229.97 535.286,231.276 535.286,231.276 L565.851,231.276 C565.851,231.276 555.599,258.643 554.813,260.731 C554.03,262.823 552.788,262.888 552.788,262.888 L449.856,262.888 L433.659,307.302 C433.659,307.302 544.95,307.302 565.851,307.302 C582.239,307.302 585.968,297.112 585.968,297.112 C585.968,297.112 617.056,212.464 620.192,203.583 C623.325,194.702 614.181,192.612 614.181,192.612 C614.181,192.612 585.185,192.612 582.571,192.612 C580.22,192.612 580.481,191.044 580.481,191.044 C580.481,191.044 586.491,174.845 587.013,173.018 C587.536,171.188 589.888,171.188 589.888,171.188 L631.36,171.386 L643.835,138.534 C643.835,138.534 588.056,138.534 572.382,138.534 Z M150.464,30.376 C150.464,30.376 141.583,56.501 141.06,56.501 C141.06,56.501 134.79,74.265 113.368,74.265 C91.946,74.265 60.595,74.265 60.595,74.265 L43.352,119.2 C43.352,119.2 118.593,119.2 118.071,119.2 C117.548,119.2 62.163,272.813 62.163,272.813 C62.163,272.813 50.146,307.302 79.929,307.302 C80.45,307.302 221.003,307.302 221.003,307.302 L237.2,262.888 L138.448,262.888 C138.448,262.888 123.296,261.319 128.521,246.169 L168.753,136.442 C168.753,136.442 175.544,119.2 195.923,119.2 L418.507,119.2 L435.228,74.265 L191.743,74.265 L207.417,30.376 L150.464,30.376 Z M644.997,191.251 L639.149,191.221 C641.218,197.136 641.14,203.718 638.864,210.171 C635.722,219.073 605.827,300.477 604.554,303.936 C601.409,312.53 589.708,327.1 565.851,327.1 L405.362,327.1 L405.37,327.075 L338.499,327.118 L361.54,263.78 C360.751,263.831 359.962,263.876 359.169,263.876 L323.634,263.876 L300.36,327.061 L214.146,327.118 L214.151,327.1 L79.929,327.1 C61.817,327.1 52.091,318.761 47.12,311.764 C34.669,294.239 41.892,270.815 43.466,266.3 C43.536,266.098 57.388,227.682 71.304,189.266 C77.856,171.177 84.425,153.085 89.569,139.001 L14.548,139.001 L46.985,54.466 L113.368,54.466 C118.854,54.466 121.339,51.913 122.464,49.636 L127.774,35.458 C129.063,31.763 130.454,27.725 131.718,24.003 L136.282,10.575 L235.515,10.575 L219.839,54.466 L463.722,54.466 L439.808,118.733 L521.733,118.733 C530.653,118.733 538.618,122.087 544.163,128.024 C550.888,123.079 560.22,118.733 572.382,118.733 L672.53,118.733 L644.997,191.251 L644.997,191.251 Z" id="Fill-17" fill="#FFFFFE"></path>
        </g>
    </g>
</svg>